# xmcd CD database file
#
# Track frame offsets:
#	150
#	30964
#	64377
#	148165
#	154928
#	193987
#	233795
#	261300
#
# Disc length: 3632 seconds
#
# Revision: 0
# Processed by: cddbd v1.4PL0 Copyright (c) Steve Scherf et al.
# Submitted via: CDex 1.50beta9
#
DISCID=750e2e08
DTITLE=KANKAWA - DRIVE BAND Confusion
DYEAR=2002
DGENRE=Jazz
TTITLE0=2Step Jam
TTITLE1=Organic Swamp
TTITLE2=Lagos Street Life
TTITLE3=Rebirth Of Oblivion
TTITLE4=Psycho Reeds
TTITLE5=V16
TTITLE6=Positive Proof
TTITLE7=Tears Of Mermaid
EXTD=YEAR: 2002
EXTT0=
EXTT1=
EXTT2=
EXTT3=
EXTT4=
EXTT5=
EXTT6=
EXTT7=
PLAYORDER=
